# Blender 4.5.4 LTS
# www.blender.org
mtllib 4InBarrelTops.mtl
o BarrelTops
v -0.087857 0.249748 0.113001
v -0.086457 0.251148 0.113001
v -0.086457 0.222468 0.113001
v -0.087857 0.223868 0.113001
v -0.027081 0.251148 0.113001
v -0.025681 0.249748 0.113001
v -0.025681 0.223868 0.113001
v -0.027081 0.222468 0.113001
v -0.086457 0.222468 0.187717
v -0.086457 0.223868 0.189117
v -0.087857 0.223868 0.187717
v -0.087857 0.249748 0.187717
v -0.086457 0.249748 0.189117
v -0.086457 0.251148 0.187717
v -0.025681 0.223868 0.187717
v -0.027081 0.223868 0.189117
v -0.027081 0.222468 0.187717
v -0.027081 0.251148 0.187717
v -0.027081 0.249748 0.189117
v -0.025681 0.249748 0.187717
v -0.085457 0.251148 0.114001
v -0.028081 0.251148 0.114001
v -0.085457 0.251148 0.186717
v -0.028081 0.251148 0.186717
v -0.029598 0.255690 0.185200
v -0.028784 0.255156 0.186014
v -0.028250 0.254342 0.186548
v -0.028250 0.254342 0.114001
v -0.083057 0.255859 0.114001
v -0.085457 0.253459 0.114001
v -0.028081 0.253459 0.114001
v -0.030481 0.255859 0.114001
v -0.083057 0.255859 0.184317
v -0.085457 0.253458 0.186717
v -0.030481 0.255859 0.184317
v -0.028081 0.253458 0.186717
v -0.083940 0.255690 0.185200
v -0.084754 0.255156 0.186014
v -0.085288 0.254342 0.186548
v -0.085288 0.254342 0.114001
v -0.084754 0.255156 0.114001
v -0.083940 0.255690 0.114001
v -0.029598 0.255690 0.114001
v -0.028784 0.255156 0.114001
v 0.025681 0.249748 0.113001
v 0.027081 0.251148 0.113001
v 0.027081 0.222468 0.113001
v 0.025681 0.223868 0.113001
v 0.086457 0.251148 0.113001
v 0.087857 0.249748 0.113001
v 0.087857 0.223868 0.113001
v 0.086457 0.222468 0.113001
v 0.027081 0.222468 0.187717
v 0.027081 0.223868 0.189117
v 0.025681 0.223868 0.187717
v 0.025681 0.249748 0.187717
v 0.027081 0.249748 0.189117
v 0.027081 0.251148 0.187717
v 0.087857 0.223868 0.187717
v 0.086457 0.223868 0.189117
v 0.086457 0.222468 0.187717
v 0.086457 0.251148 0.187717
v 0.086457 0.249748 0.189117
v 0.087857 0.249748 0.187717
v 0.028081 0.251148 0.114001
v 0.085457 0.251148 0.114001
v 0.028081 0.251148 0.186717
v 0.085457 0.251148 0.186717
v 0.083940 0.255690 0.185200
v 0.084754 0.255156 0.186014
v 0.085288 0.254342 0.186548
v 0.085288 0.254342 0.114001
v 0.030481 0.255859 0.114001
v 0.028081 0.253459 0.114001
v 0.085457 0.253459 0.114001
v 0.083057 0.255859 0.114001
v 0.030481 0.255859 0.184317
v 0.028081 0.253458 0.186717
v 0.083057 0.255859 0.184317
v 0.085457 0.253458 0.186717
v 0.029598 0.255690 0.185200
v 0.028784 0.255156 0.186014
v 0.028250 0.254342 0.186548
v 0.028250 0.254342 0.114001
v 0.028784 0.255156 0.114001
v 0.029598 0.255690 0.114001
v 0.083940 0.255690 0.114001
v 0.084754 0.255156 0.114001
vn 0.1947 0.9614 0.1947
vn 0.0630 0.9960 0.0630
vn -0.0630 0.9960 0.0630
vn -0.1947 0.9614 0.1947
vn -0.0000 0.7071 0.7071
vn -0.0000 -0.0000 1.0000
vn 1.0000 -0.0000 -0.0000
vn -1.0000 -0.0000 -0.0000
vn 0.0941 0.9956 -0.0000
vn -0.0941 0.9956 -0.0000
vn -0.0000 -1.0000 -0.0000
vn -0.4765 -0.7388 0.4765
vn -0.4765 -0.4765 0.7388
vn -0.7388 -0.4765 0.4765
vn -0.7388 0.4765 0.4765
vn -0.4765 0.4765 0.7388
vn -0.4765 0.7388 0.4765
vn 0.7388 -0.4765 0.4765
vn 0.4765 -0.4765 0.7388
vn 0.4765 -0.7388 0.4765
vn 0.4765 0.7388 0.4765
vn 0.4765 0.4765 0.7388
vn 0.7388 0.4765 0.4765
vn 0.7071 0.7071 -0.0000
vn 0.7071 -0.7071 -0.0000
vn -0.7071 0.7071 -0.0000
vn -0.7071 -0.7071 -0.0000
vn -0.0000 1.0000 -0.0000
vn -0.0000 0.3754 0.9269
vn -0.9956 0.0941 -0.0000
vn 0.9956 0.0941 -0.0000
vn -0.0000 0.0941 0.9956
vn -0.9269 0.3754 -0.0000
vn 0.9269 0.3754 -0.0000
vn -0.3754 0.9269 -0.0000
vn 0.3754 0.9269 -0.0000
vt 0.149798 0.789908
vt 0.149264 0.789473
vt 0.149264 0.763720
vt 0.149816 0.763256
vt 0.150377 0.790378
vt 0.150403 0.762775
vt 0.069317 0.667151
vt 0.095242 0.667151
vt 0.095242 0.692469
vt 0.069317 0.692469
vt 0.009932 0.666307
vt 0.009932 0.655271
vt 0.048713 0.655271
vt 0.048713 0.666307
vt 0.048713 0.693313
vt 0.048713 0.704349
vt 0.009932 0.704349
vt 0.009932 0.693313
vt 0.107212 0.789473
vt 0.107212 0.763720
vt 0.009932 0.692469
vt 0.009932 0.667151
vt 0.048713 0.667151
vt 0.048713 0.692469
vt 0.358028 0.367999
vt 0.356994 0.367510
vt 0.358028 0.367021
vt 0.576506 0.715583
vt 0.592116 0.715583
vt 0.592116 0.716561
vt 0.576506 0.716561
vt 0.357070 0.431864
vt 0.357070 0.461198
vt 0.355875 0.461198
vt 0.355875 0.431864
vt 0.069317 0.666307
vt 0.095242 0.666307
vt 0.009932 0.654427
vt 0.048713 0.654427
vt 0.048713 0.705193
vt 0.009932 0.705193
vt 0.009932 0.705796
vt 0.048713 0.705796
vt 0.150959 0.790852
vt 0.150999 0.762288
vt 0.069317 0.705796
vt 0.069317 0.705193
vt 0.095242 0.705193
vt 0.095242 0.705796
vt 0.107212 0.761776
vt 0.107213 0.760598
vt 0.153014 0.760652
vt 0.151548 0.761840
vt 0.151539 0.791330
vt 0.153007 0.792521
vt 0.107226 0.792645
vt 0.107221 0.791454
vt 0.107211 0.762294
vt 0.107219 0.791003
vt 0.107212 0.762782
vt 0.107212 0.763270
vt 0.107216 0.790488
vt 0.107214 0.789978
vt 0.069317 0.667151
vt 0.095242 0.667151
vt 0.095242 0.692469
vt 0.069317 0.692469
vt 0.009932 0.666306
vt 0.009932 0.655271
vt 0.048713 0.655271
vt 0.048713 0.666306
vt 0.048713 0.693313
vt 0.048713 0.704349
vt 0.009932 0.704349
vt 0.009932 0.693313
vt 0.009932 0.692469
vt 0.009932 0.667151
vt 0.048713 0.667151
vt 0.048713 0.692469
vt 0.357070 0.431864
vt 0.355875 0.431864
vt 0.069317 0.666306
vt 0.095242 0.666306
vt 0.009932 0.654427
vt 0.048713 0.654427
vt 0.048713 0.705193
vt 0.009932 0.705193
vt 0.009932 0.705796
vt 0.048713 0.705796
vt 0.069317 0.705796
vt 0.069317 0.705193
vt 0.095242 0.705193
vt 0.095242 0.705796
s 1
f 25/1/1 35/2/2 33/3/3 37/4/4
f 26/5/5 25/1/1 37/4/4 38/6/5
f 16/7/6 19/8/6 13/9/6 10/10/6
f 7/11/7 6/12/7 20/13/7 15/14/7
f 11/15/8 12/16/8 1/17/8 4/18/8
f 35/2/2 32/19/9 29/20/10 33/3/3
f 3/21/11 8/22/11 17/23/11 9/24/11
f 9/25/12 10/26/13 11/27/14
f 12/25/15 13/26/16 14/27/17
f 15/25/18 16/26/19 17/27/20
f 18/25/21 19/26/22 20/27/23
f 10/28/13 13/29/16 12/30/15 11/31/14
f 13/32/16 19/33/22 18/34/21 14/35/17
f 19/8/22 16/7/19 15/36/18 20/37/23
f 16/7/19 10/10/13 9/24/12 17/23/20
f 20/13/23 6/12/24 5/38/24 18/39/21
f 7/11/25 15/14/18 17/23/20 8/22/25
f 1/17/26 12/16/15 14/40/17 2/41/26
f 11/15/14 4/18/27 3/21/27 9/24/12
f 21/42/28 2/41/28 14/40/28 23/43/28
f 27/44/29 26/5/5 38/6/5 39/45/29
f 24/46/28 18/47/28 5/48/28 22/49/28
f 23/43/28 14/40/28 18/47/28 24/46/28
f 30/50/30 21/51/8 23/52/8 34/53/30
f 36/54/31 24/55/7 22/56/7 31/57/31
f 34/53/32 23/52/6 24/55/6 36/54/32
f 39/45/33 40/58/33 30/50/30 34/53/30
f 28/59/34 27/44/34 36/54/31 31/57/31
f 27/44/29 39/45/29 34/53/32 36/54/32
f 39/45/33 38/6/26 41/60/26 40/58/33
f 38/6/26 37/4/4 42/61/35 41/60/26
f 37/4/4 33/3/3 29/20/10 42/61/35
f 28/59/34 44/62/24 26/5/24 27/44/34
f 44/62/24 43/63/36 25/1/1 26/5/24
f 43/63/36 32/19/9 35/2/2 25/1/1
f 69/1/1 79/2/2 77/3/3 81/4/4
f 70/5/5 69/1/1 81/4/4 82/6/5
f 60/64/6 63/65/6 57/66/6 54/67/6
f 51/68/7 50/69/7 64/70/7 59/71/7
f 55/72/8 56/73/8 45/74/8 48/75/8
f 79/2/2 76/19/9 73/20/10 77/3/3
f 47/76/11 52/77/11 61/78/11 53/79/11
f 53/25/12 54/26/13 55/27/14
f 56/25/15 57/26/16 58/27/17
f 59/25/18 60/26/19 61/27/20
f 62/25/21 63/26/22 64/27/23
f 54/28/13 57/29/16 56/30/15 55/31/14
f 57/80/16 63/33/22 62/34/21 58/81/17
f 63/65/22 60/64/19 59/82/18 64/83/23
f 60/64/19 54/67/13 53/79/12 61/78/20
f 64/70/23 50/69/24 49/84/24 62/85/21
f 51/68/25 59/71/18 61/78/20 52/77/25
f 45/74/26 56/73/15 58/86/17 46/87/26
f 55/72/14 48/75/27 47/76/27 53/79/12
f 65/88/28 46/87/28 58/86/28 67/89/28
f 71/44/29 70/5/5 82/6/5 83/45/29
f 68/90/28 62/91/28 49/92/28 66/93/28
f 67/89/28 58/86/28 62/91/28 68/90/28
f 74/50/30 65/51/8 67/52/8 78/53/30
f 80/54/31 68/55/7 66/56/7 75/57/31
f 78/53/32 67/52/6 68/55/6 80/54/32
f 83/45/33 84/58/33 74/50/30 78/53/30
f 72/59/34 71/44/34 80/54/31 75/57/31
f 71/44/29 83/45/29 78/53/32 80/54/32
f 83/45/33 82/6/26 85/60/26 84/58/33
f 82/6/26 81/4/4 86/61/35 85/60/26
f 81/4/4 77/3/3 73/20/10 86/61/35
f 72/59/34 88/62/24 70/5/24 71/44/34
f 88/62/24 87/63/36 69/1/1 70/5/24
f 87/63/36 76/19/9 79/2/2 69/1/1
