# Blender 4.5.4 LTS
# www.blender.org
mtllib 4InBase.mtl
o Base
v 0.231252 -0.110219 0.045999
v 0.217834 -0.059036 0.090230
v 0.217896 -0.050000 -0.000000
v 0.217896 0.050000 0.000000
v 0.213709 -0.050000 -0.042509
v 0.213709 0.050000 -0.042509
v 0.201310 -0.050000 -0.083385
v 0.201310 0.050000 -0.083385
v 0.181174 -0.050000 -0.121056
v 0.181174 0.050000 -0.121056
v 0.154076 -0.050000 -0.154076
v 0.154076 0.050000 -0.154076
v 0.121056 -0.050000 -0.181174
v 0.121056 0.050000 -0.181174
v 0.083385 -0.050000 -0.201310
v 0.083385 0.050000 -0.201310
v 0.042509 -0.050000 -0.213709
v 0.042509 0.050000 -0.213709
v 0.000000 -0.050000 -0.217896
v 0.000000 0.050000 -0.217896
v -0.042509 -0.050000 -0.213709
v -0.042509 0.050000 -0.213709
v -0.083385 -0.050000 -0.201310
v -0.083385 0.050000 -0.201310
v -0.121056 -0.050000 -0.181174
v -0.121056 0.050000 -0.181174
v -0.154076 -0.050000 -0.154076
v -0.154076 0.050000 -0.154076
v -0.181174 -0.050000 -0.121056
v -0.181174 0.050000 -0.121056
v -0.201310 -0.050000 -0.083385
v -0.201310 0.050000 -0.083385
v -0.213709 -0.050000 -0.042509
v -0.213709 0.050000 -0.042509
v -0.217896 -0.050000 -0.000000
v -0.217896 0.050000 0.000000
v -0.213709 -0.050000 0.042509
v -0.213709 0.050000 0.042509
v -0.201310 -0.050000 0.083385
v -0.201310 0.050000 0.083385
v -0.181174 -0.050000 0.121056
v -0.181174 0.050000 0.121056
v -0.154076 -0.050000 0.154076
v -0.154076 0.050000 0.154076
v -0.121056 -0.050000 0.181174
v -0.121056 0.050000 0.181174
v -0.083385 -0.050000 0.201310
v -0.083385 0.050000 0.201310
v -0.042509 -0.050000 0.213709
v -0.042509 0.050000 0.213709
v -0.000000 -0.050000 0.217896
v -0.000000 0.050000 0.217896
v 0.042509 -0.050000 0.213709
v 0.042509 0.050000 0.213709
v 0.083385 -0.050000 0.201310
v 0.083385 0.050000 0.201310
v 0.121056 -0.050000 0.181174
v 0.121056 0.050000 0.181174
v 0.154076 -0.050000 0.154076
v 0.154076 0.050000 0.154076
v 0.181174 -0.050000 0.121056
v 0.181174 0.050000 0.121056
v 0.201310 -0.050000 0.083385
v 0.201310 0.050000 0.083385
v 0.213709 -0.050000 0.042509
v 0.213709 0.050000 0.042509
v 0.225801 -0.052761 -0.000000
v 0.221462 -0.052761 -0.044052
v 0.208613 -0.052761 -0.086410
v 0.187746 -0.052761 -0.125448
v 0.159665 -0.052761 -0.159665
v 0.125448 -0.052761 -0.187746
v 0.086410 -0.052761 -0.208613
v 0.044052 -0.052761 -0.221462
v 0.000000 -0.052761 -0.225801
v -0.044052 -0.052761 -0.221462
v -0.086410 -0.052761 -0.208613
v -0.125448 -0.052761 -0.187746
v -0.159665 -0.052761 -0.159665
v -0.187746 -0.052761 -0.125448
v -0.208613 -0.052761 -0.086410
v -0.221462 -0.052761 -0.044052
v -0.225801 -0.052761 -0.000000
v -0.221462 -0.052761 0.044052
v -0.208613 -0.052761 0.086410
v -0.187746 -0.052761 0.125448
v -0.159665 -0.052761 0.159665
v -0.125448 -0.052761 0.187746
v -0.086410 -0.052761 0.208613
v -0.044052 -0.052761 0.221462
v -0.000000 -0.052761 0.225801
v 0.044052 -0.052761 0.221462
v 0.086410 -0.052761 0.208613
v 0.125448 -0.052761 0.187746
v 0.159665 -0.052761 0.159665
v 0.187746 -0.052761 0.125448
v 0.208613 -0.052761 0.086410
v 0.221462 -0.052761 0.044052
v 0.225801 -0.059036 -0.000000
v 0.221462 -0.059036 -0.044052
v 0.208613 -0.059036 -0.086410
v 0.187746 -0.059036 -0.125448
v 0.159665 -0.059036 -0.159665
v 0.125448 -0.059036 -0.187746
v 0.086410 -0.059036 -0.208613
v 0.044052 -0.059036 -0.221462
v 0.000000 -0.059036 -0.225801
v -0.044052 -0.059036 -0.221462
v -0.086410 -0.059036 -0.208613
v -0.125448 -0.059036 -0.187746
v -0.159665 -0.059036 -0.159665
v -0.187746 -0.059036 -0.125448
v -0.208613 -0.059036 -0.086410
v -0.221462 -0.059036 -0.044052
v -0.225801 -0.059036 -0.000000
v -0.221462 -0.059036 0.044052
v -0.208613 -0.059036 0.086410
v -0.187746 -0.059036 0.125448
v -0.159665 -0.059036 0.159665
v -0.125448 -0.059036 0.187746
v -0.086410 -0.059036 0.208613
v -0.044052 -0.059036 0.221462
v -0.000000 -0.059036 0.225801
v 0.044052 -0.059036 0.221462
v 0.086410 -0.059036 0.208613
v 0.125448 -0.059036 0.187746
v 0.159665 -0.059036 0.159665
v 0.187746 -0.059036 0.125448
v 0.208613 -0.059036 0.086410
v 0.221462 -0.059036 0.044052
v 0.225801 -0.094010 -0.000000
v 0.221462 -0.094010 -0.044052
v 0.208613 -0.094010 -0.086410
v 0.187746 -0.094010 -0.125448
v 0.159665 -0.094010 -0.159665
v 0.125448 -0.094010 -0.187746
v 0.086410 -0.094010 -0.208613
v 0.044052 -0.094010 -0.221462
v 0.000000 -0.094010 -0.225801
v -0.044052 -0.094010 -0.221462
v -0.086410 -0.094010 -0.208613
v -0.125448 -0.094010 -0.187746
v -0.159665 -0.094010 -0.159665
v -0.187746 -0.094010 -0.125448
v -0.208613 -0.094010 -0.086410
v -0.221462 -0.094010 -0.044052
v -0.225801 -0.094010 -0.000000
v -0.221462 -0.094010 0.044051
v -0.208613 -0.094010 0.086410
v -0.187746 -0.094010 0.125448
v -0.159665 -0.094010 0.159665
v -0.125448 -0.094010 0.187746
v -0.086410 -0.094010 0.208613
v -0.044052 -0.094010 0.221462
v -0.000000 -0.094010 0.225801
v 0.044052 -0.094010 0.221462
v 0.086410 -0.094010 0.208613
v 0.125448 -0.094010 0.187746
v 0.159665 -0.094010 0.159665
v 0.187746 -0.094010 0.125448
v 0.208613 -0.094010 0.086410
v 0.221462 -0.094010 0.044051
v 0.217834 -0.110219 0.090230
v 0.196046 -0.110219 0.130993
v 0.166723 -0.110219 0.166723
v 0.130993 -0.110219 0.196046
v 0.090230 -0.110219 0.217834
v 0.045999 -0.110219 0.231252
v -0.000000 -0.110219 0.235782
v -0.045999 -0.110219 0.231252
v -0.090230 -0.110219 0.217834
v -0.130993 -0.110219 0.196046
v -0.166723 -0.110219 0.166723
v -0.196046 -0.110219 0.130993
v -0.217834 -0.110219 0.090230
v -0.231252 -0.110219 0.045999
v -0.235782 -0.110219 -0.000000
v -0.231252 -0.110219 -0.045999
v -0.217834 -0.110219 -0.090230
v -0.196046 -0.110219 -0.130993
v -0.166723 -0.110219 -0.166723
v -0.130993 -0.110219 -0.196046
v -0.090230 -0.110219 -0.217834
v -0.045999 -0.110219 -0.231252
v 0.000000 -0.110219 -0.235782
v 0.045999 -0.110219 -0.231252
v 0.090230 -0.110219 -0.217834
v 0.130993 -0.110219 -0.196046
v 0.166723 -0.110219 -0.166723
v 0.196046 -0.110219 -0.130993
v 0.217834 -0.110219 -0.090230
v 0.231252 -0.110219 -0.045999
v 0.235782 -0.110219 -0.000000
v 0.231252 -0.094010 0.045999
v 0.225801 -0.050000 -0.000000
v 0.221462 -0.050000 -0.044052
v 0.208613 -0.050000 -0.086410
v 0.187746 -0.050000 -0.125448
v 0.159665 -0.050000 -0.159665
v 0.125448 -0.050000 -0.187746
v 0.086410 -0.050000 -0.208613
v 0.044052 -0.050000 -0.221462
v 0.000000 -0.050000 -0.225801
v -0.044052 -0.050000 -0.221462
v -0.086410 -0.050000 -0.208613
v -0.125448 -0.050000 -0.187746
v -0.159665 -0.050000 -0.159665
v -0.187746 -0.050000 -0.125448
v -0.208613 -0.050000 -0.086410
v -0.221462 -0.050000 -0.044052
v -0.225801 -0.050000 -0.000000
v -0.221462 -0.050000 0.044052
v -0.208613 -0.050000 0.086410
v -0.187746 -0.050000 0.125448
v -0.159665 -0.050000 0.159665
v -0.125448 -0.050000 0.187746
v -0.086410 -0.050000 0.208613
v -0.044052 -0.050000 0.221462
v -0.000000 -0.050000 0.225801
v 0.044052 -0.050000 0.221462
v 0.086410 -0.050000 0.208613
v 0.125448 -0.050000 0.187746
v 0.159665 -0.050000 0.159665
v 0.187746 -0.050000 0.125448
v 0.208613 -0.050000 0.086410
v 0.221462 -0.050000 0.044052
v 0.217834 -0.094010 0.090230
v 0.196046 -0.094010 0.130993
v 0.166723 -0.094010 0.166723
v 0.130993 -0.094010 0.196046
v 0.090230 -0.094010 0.217834
v 0.045999 -0.094010 0.231252
v -0.000000 -0.094010 0.235782
v -0.045999 -0.094010 0.231252
v -0.090230 -0.094010 0.217834
v -0.130993 -0.094010 0.196046
v -0.166723 -0.094010 0.166723
v -0.196046 -0.094010 0.130993
v -0.217834 -0.094010 0.090230
v -0.231252 -0.094010 0.045999
v -0.235782 -0.094010 -0.000000
v -0.231252 -0.094010 -0.045999
v -0.217834 -0.094010 -0.090230
v -0.196046 -0.094010 -0.130993
v -0.166723 -0.094010 -0.166723
v -0.130993 -0.094010 -0.196046
v -0.090230 -0.094010 -0.217834
v -0.045999 -0.094010 -0.231252
v 0.000000 -0.094010 -0.235782
v 0.045999 -0.094010 -0.231252
v 0.090230 -0.094010 -0.217834
v 0.130993 -0.094010 -0.196046
v 0.166723 -0.094010 -0.166723
v 0.196046 -0.094010 -0.130993
v 0.217834 -0.094010 -0.090230
v 0.231252 -0.094010 -0.045999
v 0.235782 -0.094010 -0.000000
v 0.231252 -0.059036 0.045999
v 0.235782 -0.052761 -0.000000
v 0.231252 -0.052761 -0.045999
v 0.217834 -0.052761 -0.090230
v 0.196046 -0.052761 -0.130993
v 0.166723 -0.052761 -0.166723
v 0.130993 -0.052761 -0.196046
v 0.090230 -0.052761 -0.217834
v 0.045999 -0.052761 -0.231252
v 0.000000 -0.052761 -0.235782
v -0.045999 -0.052761 -0.231252
v -0.090230 -0.052761 -0.217834
v -0.130993 -0.052761 -0.196046
v -0.166723 -0.052761 -0.166723
v -0.196046 -0.052761 -0.130993
v -0.217834 -0.052761 -0.090230
v -0.231252 -0.052761 -0.045999
v -0.235782 -0.052761 -0.000000
v -0.231252 -0.052761 0.045999
v -0.217834 -0.052761 0.090230
v -0.196046 -0.052761 0.130993
v -0.166723 -0.052761 0.166723
v -0.130993 -0.052761 0.196046
v -0.090230 -0.052761 0.217834
v -0.045999 -0.052761 0.231252
v -0.000000 -0.052761 0.235782
v 0.045999 -0.052761 0.231252
v 0.090230 -0.052761 0.217834
v 0.130993 -0.052761 0.196046
v 0.166723 -0.052761 0.166723
v 0.196046 -0.052761 0.130993
v 0.217834 -0.052761 0.090230
v 0.231252 -0.052761 0.045999
v 0.235782 -0.059036 -0.000000
v 0.231252 -0.059036 -0.045999
v 0.217834 -0.059036 -0.090230
v 0.196046 -0.059036 -0.130993
v 0.166723 -0.059036 -0.166723
v 0.130993 -0.059036 -0.196046
v 0.090230 -0.059036 -0.217834
v 0.045999 -0.059036 -0.231252
v 0.000000 -0.059036 -0.235782
v -0.045999 -0.059036 -0.231252
v -0.090230 -0.059036 -0.217834
v -0.130993 -0.059036 -0.196046
v -0.166723 -0.059036 -0.166723
v -0.196046 -0.059036 -0.130993
v -0.217834 -0.059036 -0.090230
v -0.231252 -0.059036 -0.045999
v -0.235782 -0.059036 -0.000000
v -0.231252 -0.059036 0.045999
v -0.217834 -0.059036 0.090230
v -0.196046 -0.059036 0.130993
v -0.166723 -0.059036 0.166723
v -0.130993 -0.059036 0.196046
v -0.090230 -0.059036 0.217834
v -0.045999 -0.059036 0.231252
v -0.000000 -0.059036 0.235782
v 0.045999 -0.059036 0.231252
v 0.090230 -0.059036 0.217834
v 0.130993 -0.059036 0.196046
v 0.166723 -0.059036 0.166723
v 0.196046 -0.059036 0.130993
v 0.004764 -0.095118 -0.223115
v 0.004764 -0.058346 -0.223115
v 0.004764 -0.095118 -0.231147
v 0.004764 -0.058346 -0.231147
v -0.004764 -0.095118 -0.231147
v -0.004764 -0.058346 -0.231147
v -0.004764 -0.095118 -0.223115
v -0.004764 -0.058346 -0.223115
v 0.073477 -0.095118 -0.210723
v 0.073477 -0.058346 -0.210723
v 0.075959 -0.095118 -0.218362
v 0.075959 -0.058346 -0.218362
v 0.066898 -0.095118 -0.221306
v 0.066898 -0.058346 -0.221306
v 0.064416 -0.095118 -0.213667
v 0.064416 -0.058346 -0.213667
v 0.134997 -0.095118 -0.177704
v 0.134997 -0.058346 -0.177704
v 0.139719 -0.095118 -0.184202
v 0.139719 -0.058346 -0.184202
v 0.132011 -0.095118 -0.189802
v 0.132011 -0.058346 -0.189802
v 0.127290 -0.095118 -0.183304
v 0.127290 -0.058346 -0.183304
v 0.183304 -0.095118 -0.127290
v 0.183304 -0.058346 -0.127290
v 0.189802 -0.095118 -0.132011
v 0.189802 -0.058346 -0.132011
v 0.184202 -0.095118 -0.139719
v 0.184202 -0.058346 -0.139719
v 0.177704 -0.095118 -0.134997
v 0.177704 -0.058346 -0.134997
v 0.213667 -0.095118 -0.064416
v 0.213667 -0.058346 -0.064416
v 0.221306 -0.095118 -0.066898
v 0.221306 -0.058346 -0.066898
v 0.218362 -0.095118 -0.075959
v 0.218362 -0.058346 -0.075959
v 0.210723 -0.095118 -0.073477
v 0.210723 -0.058346 -0.073477
v 0.223115 -0.095118 0.004764
v 0.223115 -0.058346 0.004764
v 0.231147 -0.095118 0.004764
v 0.231147 -0.058346 0.004764
v 0.231147 -0.095118 -0.004764
v 0.231147 -0.058346 -0.004764
v 0.223115 -0.095118 -0.004764
v 0.223115 -0.058346 -0.004764
v 0.210723 -0.095118 0.073477
v 0.210723 -0.058346 0.073477
v 0.218362 -0.095118 0.075959
v 0.218362 -0.058346 0.075959
v 0.221306 -0.095118 0.066898
v 0.221306 -0.058346 0.066898
v 0.213667 -0.095118 0.064416
v 0.213667 -0.058346 0.064416
v 0.177704 -0.095118 0.134997
v 0.177704 -0.058346 0.134997
v 0.184202 -0.095118 0.139719
v 0.184202 -0.058346 0.139719
v 0.189802 -0.095118 0.132011
v 0.189802 -0.058346 0.132011
v 0.183304 -0.095118 0.127290
v 0.183304 -0.058346 0.127290
v 0.127290 -0.095118 0.183304
v 0.127290 -0.058346 0.183304
v 0.132011 -0.095118 0.189802
v 0.132011 -0.058346 0.189802
v 0.139719 -0.095118 0.184202
v 0.139719 -0.058346 0.184202
v 0.134997 -0.095118 0.177704
v 0.134997 -0.058346 0.177704
v 0.064416 -0.095118 0.213667
v 0.064416 -0.058346 0.213667
v 0.066898 -0.095118 0.221306
v 0.066898 -0.058346 0.221306
v 0.075959 -0.095118 0.218362
v 0.075959 -0.058346 0.218362
v 0.073477 -0.095118 0.210723
v 0.073477 -0.058346 0.210723
v -0.004764 -0.095118 0.223115
v -0.004764 -0.058346 0.223115
v -0.004764 -0.095118 0.231147
v -0.004764 -0.058346 0.231147
v 0.004764 -0.095118 0.231147
v 0.004764 -0.058346 0.231147
v 0.004764 -0.095118 0.223115
v 0.004764 -0.058346 0.223115
v -0.073477 -0.095118 0.210723
v -0.073477 -0.058346 0.210723
v -0.075959 -0.095118 0.218362
v -0.075959 -0.058346 0.218362
v -0.066898 -0.095118 0.221306
v -0.066898 -0.058346 0.221306
v -0.064416 -0.095118 0.213667
v -0.064416 -0.058346 0.213667
v -0.134997 -0.095118 0.177704
v -0.134997 -0.058346 0.177704
v -0.139719 -0.095118 0.184202
v -0.139719 -0.058346 0.184202
v -0.132011 -0.095118 0.189802
v -0.132011 -0.058346 0.189802
v -0.127290 -0.095118 0.183304
v -0.127290 -0.058346 0.183304
v -0.183304 -0.095118 0.127290
v -0.183304 -0.058346 0.127290
v -0.189802 -0.095118 0.132011
v -0.189802 -0.058346 0.132011
v -0.184202 -0.095118 0.139719
v -0.184202 -0.058346 0.139719
v -0.177704 -0.095118 0.134997
v -0.177704 -0.058346 0.134997
v -0.213667 -0.095118 0.064416
v -0.213667 -0.058346 0.064416
v -0.221306 -0.095118 0.066898
v -0.221306 -0.058346 0.066898
v -0.218362 -0.095118 0.075959
v -0.218362 -0.058346 0.075959
v -0.210723 -0.095118 0.073477
v -0.210723 -0.058346 0.073477
v -0.223115 -0.095118 -0.004764
v -0.223115 -0.058346 -0.004764
v -0.231147 -0.095118 -0.004764
v -0.231147 -0.058346 -0.004764
v -0.231147 -0.095118 0.004764
v -0.231147 -0.058346 0.004764
v -0.223115 -0.095118 0.004764
v -0.223115 -0.058346 0.004764
v -0.210723 -0.095118 -0.073477
v -0.210723 -0.058346 -0.073477
v -0.218362 -0.095118 -0.075959
v -0.218362 -0.058346 -0.075959
v -0.221306 -0.095118 -0.066898
v -0.221306 -0.058346 -0.066898
v -0.213667 -0.095118 -0.064416
v -0.213667 -0.058346 -0.064416
v -0.177704 -0.095118 -0.134997
v -0.177704 -0.058346 -0.134997
v -0.184202 -0.095118 -0.139719
v -0.184202 -0.058346 -0.139719
v -0.189802 -0.095118 -0.132011
v -0.189802 -0.058346 -0.132011
v -0.183304 -0.095118 -0.127290
v -0.183304 -0.058346 -0.127290
v -0.127290 -0.095118 -0.183304
v -0.127290 -0.058346 -0.183304
v -0.132011 -0.095118 -0.189802
v -0.132011 -0.058346 -0.189802
v -0.139719 -0.095118 -0.184202
v -0.139719 -0.058346 -0.184202
v -0.134997 -0.095118 -0.177704
v -0.134997 -0.058346 -0.177704
v -0.064416 -0.095118 -0.213667
v -0.064416 -0.058346 -0.213667
v -0.066898 -0.095118 -0.221306
v -0.066898 -0.058346 -0.221306
v -0.075959 -0.095118 -0.218362
v -0.075959 -0.058346 -0.218362
v -0.073477 -0.095118 -0.210723
v -0.073477 -0.058346 -0.210723
vn -0.0000 1.0000 -0.0000
vn 0.9808 -0.0000 -0.1951
vn 1.0000 -0.0000 -0.0000
vn -0.0000 -1.0000 -0.0000
vn 0.9239 -0.0000 -0.3827
vn 0.8315 -0.0000 -0.5556
vn 0.7071 -0.0000 -0.7071
vn 0.5556 -0.0000 -0.8315
vn 0.3827 -0.0000 -0.9239
vn 0.1951 -0.0000 -0.9808
vn -0.0000 -0.0000 -1.0000
vn -0.1951 -0.0000 -0.9808
vn -0.3827 -0.0000 -0.9239
vn -0.5556 -0.0000 -0.8315
vn -0.7071 -0.0000 -0.7071
vn -0.8315 -0.0000 -0.5556
vn -0.9239 -0.0000 -0.3827
vn -0.9808 -0.0000 -0.1951
vn -1.0000 -0.0000 -0.0000
vn -0.9808 -0.0000 0.1951
vn -0.9239 -0.0000 0.3827
vn -0.8315 -0.0000 0.5556
vn -0.7071 -0.0000 0.7071
vn -0.5556 -0.0000 0.8315
vn -0.3827 -0.0000 0.9239
vn -0.1951 -0.0000 0.9808
vn -0.0000 -0.0000 1.0000
vn 0.1951 -0.0000 0.9808
vn 0.3827 -0.0000 0.9239
vn 0.5556 -0.0000 0.8315
vn 0.7071 -0.0000 0.7071
vn 0.8315 -0.0000 0.5556
vn 0.9239 -0.0000 0.3827
vn 0.9808 -0.0000 0.1951
vn 0.9511 -0.0000 0.3090
vn 0.3090 -0.0000 -0.9511
vn -0.9511 -0.0000 -0.3090
vn 0.8090 -0.0000 0.5878
vn 0.5878 -0.0000 -0.8090
vn -0.8090 -0.0000 -0.5878
vn 0.5878 -0.0000 0.8090
vn 0.8090 -0.0000 -0.5878
vn -0.5878 -0.0000 -0.8090
vn 0.3090 -0.0000 0.9511
vn 0.9511 -0.0000 -0.3090
vn -0.3090 -0.0000 -0.9511
vn -0.3090 -0.0000 0.9511
vn -0.5878 -0.0000 0.8090
vn -0.8090 -0.0000 0.5878
vn -0.9511 -0.0000 0.3090
vt 0.297608 0.145503
vt 0.297608 0.137548
vt 0.313977 0.137548
vt 0.313977 0.145503
vt 0.281239 0.080263
vt 0.281239 0.000565
vt 0.297608 0.000565
vt 0.297608 0.080263
vt 0.575879 0.101720
vt 0.575879 0.109675
vt 0.559510 0.109675
vt 0.559510 0.101720
vt 0.330346 0.137548
vt 0.330346 0.145503
vt 0.264870 0.080263
vt 0.264870 0.000565
vt 0.559510 0.096719
vt 0.559510 0.088764
vt 0.575879 0.088764
vt 0.575879 0.096719
vt 0.346714 0.137548
vt 0.346714 0.145503
vt 0.248501 0.080263
vt 0.248501 0.000565
vt 0.592248 0.101720
vt 0.592248 0.109675
vt 0.363083 0.137548
vt 0.363083 0.145503
vt 0.232132 0.080263
vt 0.232132 0.000565
vt 0.592248 0.088764
vt 0.592248 0.096719
vt 0.379452 0.137548
vt 0.379452 0.145503
vt 0.215763 0.080263
vt 0.215763 0.000565
vt 0.608617 0.101720
vt 0.608617 0.109675
vt 0.395821 0.137548
vt 0.395821 0.145503
vt 0.199394 0.080263
vt 0.199394 0.000565
vt 0.608617 0.088764
vt 0.608617 0.096719
vt 0.412190 0.137548
vt 0.412190 0.145503
vt 0.183025 0.080263
vt 0.183025 0.000565
vt 0.624986 0.101720
vt 0.624986 0.109675
vt 0.428559 0.137548
vt 0.428559 0.145503
vt 0.166657 0.080263
vt 0.166657 0.000565
vt 0.624986 0.088764
vt 0.624986 0.096719
vt 0.444928 0.137548
vt 0.444928 0.145503
vt 0.674093 0.080263
vt 0.674093 0.000565
vt 0.690461 0.000565
vt 0.690461 0.080263
vt 0.641355 0.101720
vt 0.641355 0.109675
vt 0.461297 0.137548
vt 0.461297 0.145503
vt 0.657724 0.080263
vt 0.657724 0.000565
vt 0.641355 0.088764
vt 0.641355 0.096719
vt 0.477666 0.137548
vt 0.477666 0.145503
vt 0.641355 0.080263
vt 0.641355 0.000565
vt 0.657724 0.101720
vt 0.657724 0.109675
vt 0.494035 0.137548
vt 0.494035 0.145503
vt 0.624986 0.080263
vt 0.624986 0.000565
vt 0.657724 0.088764
vt 0.657724 0.096719
vt 0.510404 0.137548
vt 0.510404 0.145503
vt 0.608617 0.080263
vt 0.608617 0.000565
vt 0.674093 0.101720
vt 0.674093 0.109675
vt 0.526772 0.137548
vt 0.526772 0.145503
vt 0.592248 0.080263
vt 0.592248 0.000565
vt 0.674093 0.088764
vt 0.674093 0.096719
vt 0.543141 0.137548
vt 0.543141 0.145503
vt 0.575879 0.080263
vt 0.575879 0.000565
vt 0.690461 0.101720
vt 0.690461 0.109675
vt 0.559510 0.137548
vt 0.559510 0.145503
vt 0.559510 0.080263
vt 0.559510 0.000565
vt 0.690461 0.088764
vt 0.690461 0.096719
vt 0.575879 0.137548
vt 0.575879 0.145503
vt 0.543141 0.080263
vt 0.543141 0.000565
vt 0.183025 0.101720
vt 0.183025 0.109675
vt 0.166657 0.109675
vt 0.166657 0.101720
vt 0.592248 0.137548
vt 0.592248 0.145503
vt 0.526772 0.080263
vt 0.526772 0.000565
vt 0.166657 0.096719
vt 0.166657 0.088764
vt 0.183025 0.088764
vt 0.183025 0.096719
vt 0.608617 0.137548
vt 0.608617 0.145503
vt 0.510404 0.080263
vt 0.510404 0.000565
vt 0.199394 0.101720
vt 0.199394 0.109675
vt 0.624986 0.137548
vt 0.624986 0.145503
vt 0.494035 0.080263
vt 0.494035 0.000565
vt 0.199394 0.088764
vt 0.199394 0.096719
vt 0.641355 0.137548
vt 0.641355 0.145503
vt 0.477666 0.080263
vt 0.477666 0.000565
vt 0.215763 0.101720
vt 0.215763 0.109675
vt 0.657724 0.137548
vt 0.657724 0.145503
vt 0.461297 0.080263
vt 0.461297 0.000565
vt 0.215763 0.088764
vt 0.215763 0.096719
vt 0.674093 0.137548
vt 0.674093 0.145503
vt 0.444928 0.080263
vt 0.444928 0.000565
vt 0.232132 0.101720
vt 0.232132 0.109675
vt 0.690461 0.137548
vt 0.690461 0.145503
vt 0.428559 0.080263
vt 0.428559 0.000565
vt 0.232132 0.088764
vt 0.232132 0.096719
vt 0.166657 0.145503
vt 0.166657 0.137548
vt 0.183025 0.137548
vt 0.183025 0.145503
vt 0.412190 0.080263
vt 0.412190 0.000565
vt 0.248501 0.101720
vt 0.248501 0.109675
vt 0.199394 0.137548
vt 0.199394 0.145503
vt 0.395821 0.080263
vt 0.395821 0.000565
vt 0.248501 0.088764
vt 0.248501 0.096719
vt 0.215763 0.137548
vt 0.215763 0.145503
vt 0.379452 0.080263
vt 0.379452 0.000565
vt 0.264870 0.101720
vt 0.264870 0.109675
vt 0.232132 0.137548
vt 0.232132 0.145503
vt 0.363083 0.080263
vt 0.363083 0.000565
vt 0.264870 0.088764
vt 0.264870 0.096719
vt 0.248501 0.137548
vt 0.248501 0.145503
vt 0.346714 0.080263
vt 0.346714 0.000565
vt 0.281239 0.101720
vt 0.281239 0.109675
vt 0.264870 0.137548
vt 0.264870 0.145503
vt 0.330346 0.080263
vt 0.330346 0.000565
vt 0.281239 0.088764
vt 0.281239 0.096719
vt 0.281239 0.137548
vt 0.281239 0.145503
vt 0.313977 0.080263
vt 0.313977 0.000565
vt 0.297608 0.101720
vt 0.297608 0.109675
vt 0.297608 0.088764
vt 0.297608 0.096719
vt 0.281239 0.086563
vt 0.297608 0.086563
vt 0.264870 0.086563
vt 0.248501 0.086563
vt 0.232132 0.086563
vt 0.215763 0.086563
vt 0.199394 0.086563
vt 0.183025 0.086563
vt 0.166657 0.086563
vt 0.674093 0.086563
vt 0.690461 0.086563
vt 0.657724 0.086563
vt 0.641355 0.086563
vt 0.624986 0.086563
vt 0.608617 0.086563
vt 0.592248 0.086563
vt 0.575879 0.086563
vt 0.559510 0.086563
vt 0.543141 0.088764
vt 0.543141 0.086563
vt 0.526772 0.088764
vt 0.526772 0.086563
vt 0.510404 0.088764
vt 0.510404 0.086563
vt 0.494035 0.088764
vt 0.494035 0.086563
vt 0.477666 0.088764
vt 0.477666 0.086563
vt 0.461297 0.088764
vt 0.461297 0.086563
vt 0.444928 0.088764
vt 0.444928 0.086563
vt 0.428559 0.088764
vt 0.428559 0.086563
vt 0.412190 0.088764
vt 0.412190 0.086563
vt 0.395821 0.088764
vt 0.395821 0.086563
vt 0.379452 0.088764
vt 0.379452 0.086563
vt 0.363083 0.088764
vt 0.363083 0.086563
vt 0.346714 0.088764
vt 0.346714 0.086563
vt 0.330346 0.088764
vt 0.330346 0.086563
vt 0.313977 0.088764
vt 0.313977 0.086563
vt 0.543141 0.101720
vt 0.543141 0.096719
vt 0.526772 0.101720
vt 0.526772 0.096719
vt 0.510404 0.101720
vt 0.510404 0.096719
vt 0.494035 0.101720
vt 0.494035 0.096719
vt 0.477666 0.101720
vt 0.477666 0.096719
vt 0.461297 0.101720
vt 0.461297 0.096719
vt 0.444928 0.101720
vt 0.444928 0.096719
vt 0.428559 0.101720
vt 0.428559 0.096719
vt 0.412190 0.101720
vt 0.412190 0.096719
vt 0.395821 0.101720
vt 0.395821 0.096719
vt 0.379452 0.101720
vt 0.379452 0.096719
vt 0.363083 0.101720
vt 0.363083 0.096719
vt 0.346714 0.101720
vt 0.346714 0.096719
vt 0.330346 0.101720
vt 0.330346 0.096719
vt 0.313977 0.101720
vt 0.313977 0.096719
vt 0.543141 0.109675
vt 0.526772 0.109675
vt 0.510404 0.109675
vt 0.494035 0.109675
vt 0.477666 0.109675
vt 0.461297 0.109675
vt 0.444928 0.109675
vt 0.428559 0.109675
vt 0.412190 0.109675
vt 0.395821 0.109675
vt 0.379452 0.109675
vt 0.363083 0.109675
vt 0.346714 0.109675
vt 0.330346 0.109675
vt 0.313977 0.109675
vt 0.281239 0.158422
vt 0.297608 0.158422
vt 0.264870 0.158422
vt 0.248501 0.158422
vt 0.232132 0.158422
vt 0.215763 0.158422
vt 0.199394 0.158422
vt 0.183025 0.158422
vt 0.166657 0.158422
vt 0.674093 0.158422
vt 0.690461 0.158422
vt 0.657724 0.158422
vt 0.641355 0.158422
vt 0.624986 0.158422
vt 0.608617 0.158422
vt 0.592248 0.158422
vt 0.575879 0.158422
vt 0.559510 0.158422
vt 0.543141 0.158422
vt 0.526772 0.158422
vt 0.510404 0.158422
vt 0.494035 0.158422
vt 0.477666 0.158422
vt 0.461297 0.158422
vt 0.444928 0.158422
vt 0.428559 0.158422
vt 0.412190 0.158422
vt 0.395821 0.158422
vt 0.379452 0.158422
vt 0.363083 0.158422
vt 0.346714 0.158422
vt 0.330346 0.158422
vt 0.313977 0.158422
vt 0.081388 0.887230
vt 0.103568 0.887230
vt 0.103568 0.883262
vt 0.081388 0.883262
vt 0.081388 0.891937
vt 0.103568 0.891937
vt 0.081388 0.895905
vt 0.103568 0.895905
s 1
f 257/1/1 131/2/1 162/3/1 194/4/1
f 5/5/2 6/6/2 4/7/3 3/8/3
f 306/9/4 114/10/4 115/11/4 307/12/4
f 194/4/1 162/3/1 161/13/1 227/14/1
f 7/15/5 8/16/5 6/6/2 5/5/2
f 275/17/1 83/18/1 82/19/1 274/20/1
f 227/14/1 161/13/1 160/21/1 228/22/1
f 9/23/6 10/24/6 8/16/5 7/15/5
f 305/25/4 113/26/4 114/10/4 306/9/4
f 228/22/1 160/21/1 159/27/1 229/28/1
f 11/29/7 12/30/7 10/24/6 9/23/6
f 274/20/1 82/19/1 81/31/1 273/32/1
f 229/28/1 159/27/1 158/33/1 230/34/1
f 13/35/8 14/36/8 12/30/7 11/29/7
f 304/37/4 112/38/4 113/26/4 305/25/4
f 230/34/1 158/33/1 157/39/1 231/40/1
f 15/41/9 16/42/9 14/36/8 13/35/8
f 273/32/1 81/31/1 80/43/1 272/44/1
f 231/40/1 157/39/1 156/45/1 232/46/1
f 17/47/10 18/48/10 16/42/9 15/41/9
f 303/49/4 111/50/4 112/38/4 304/37/4
f 232/46/1 156/45/1 155/51/1 233/52/1
f 19/53/11 20/54/11 18/48/10 17/47/10
f 272/44/1 80/43/1 79/55/1 271/56/1
f 233/52/1 155/51/1 154/57/1 234/58/1
f 21/59/12 22/60/12 20/61/11 19/62/11
f 302/63/4 110/64/4 111/50/4 303/49/4
f 234/58/1 154/57/1 153/65/1 235/66/1
f 23/67/13 24/68/13 22/60/12 21/59/12
f 271/56/1 79/55/1 78/69/1 270/70/1
f 235/66/1 153/65/1 152/71/1 236/72/1
f 25/73/14 26/74/14 24/68/13 23/67/13
f 301/75/4 109/76/4 110/64/4 302/63/4
f 236/72/1 152/71/1 151/77/1 237/78/1
f 27/79/15 28/80/15 26/74/14 25/73/14
f 270/70/1 78/69/1 77/81/1 269/82/1
f 237/78/1 151/77/1 150/83/1 238/84/1
f 29/85/16 30/86/16 28/80/15 27/79/15
f 300/87/4 108/88/4 109/76/4 301/75/4
f 238/84/1 150/83/1 149/89/1 239/90/1
f 31/91/17 32/92/17 30/86/16 29/85/16
f 269/82/1 77/81/1 76/93/1 268/94/1
f 239/90/1 149/89/1 148/95/1 240/96/1
f 33/97/18 34/98/18 32/92/17 31/91/17
f 299/99/4 107/100/4 108/88/4 300/87/4
f 240/96/1 148/95/1 147/101/1 241/102/1
f 35/103/19 36/104/19 34/98/18 33/97/18
f 268/94/1 76/93/1 75/105/1 267/106/1
f 241/102/1 147/101/1 146/107/1 242/108/1
f 37/109/20 38/110/20 36/104/19 35/103/19
f 298/111/4 106/112/4 107/113/4 299/114/4
f 242/108/1 146/107/1 145/115/1 243/116/1
f 39/117/21 40/118/21 38/110/20 37/109/20
f 267/119/1 75/120/1 74/121/1 266/122/1
f 243/116/1 145/115/1 144/123/1 244/124/1
f 41/125/22 42/126/22 40/118/21 39/117/21
f 297/127/4 105/128/4 106/112/4 298/111/4
f 244/124/1 144/123/1 143/129/1 245/130/1
f 43/131/23 44/132/23 42/126/22 41/125/22
f 266/122/1 74/121/1 73/133/1 265/134/1
f 245/130/1 143/129/1 142/135/1 246/136/1
f 45/137/24 46/138/24 44/132/23 43/131/23
f 296/139/4 104/140/4 105/128/4 297/127/4
f 246/136/1 142/135/1 141/141/1 247/142/1
f 47/143/25 48/144/25 46/138/24 45/137/24
f 265/134/1 73/133/1 72/145/1 264/146/1
f 247/142/1 141/141/1 140/147/1 248/148/1
f 49/149/26 50/150/26 48/144/25 47/143/25
f 295/151/4 103/152/4 104/140/4 296/139/4
f 248/148/1 140/147/1 139/153/1 249/154/1
f 51/155/27 52/156/27 50/150/26 49/149/26
f 264/146/1 72/145/1 71/157/1 263/158/1
f 249/159/1 139/160/1 138/161/1 250/162/1
f 53/163/28 54/164/28 52/156/27 51/155/27
f 294/165/4 102/166/4 103/152/4 295/151/4
f 250/162/1 138/161/1 137/167/1 251/168/1
f 55/169/29 56/170/29 54/164/28 53/163/28
f 263/158/1 71/157/1 70/171/1 262/172/1
f 251/168/1 137/167/1 136/173/1 252/174/1
f 57/175/30 58/176/30 56/170/29 55/169/29
f 293/177/4 101/178/4 102/166/4 294/165/4
f 252/174/1 136/173/1 135/179/1 253/180/1
f 59/181/31 60/182/31 58/176/30 57/175/30
f 262/172/1 70/171/1 69/183/1 261/184/1
f 253/180/1 135/179/1 134/185/1 254/186/1
f 61/187/32 62/188/32 60/182/31 59/181/31
f 292/189/4 100/190/4 101/178/4 293/177/4
f 254/186/1 134/185/1 133/191/1 255/192/1
f 63/193/33 64/194/33 62/188/32 61/187/32
f 261/184/1 69/183/1 68/195/1 260/196/1
f 255/192/1 133/191/1 132/197/1 256/198/1
f 65/199/34 66/200/34 64/194/33 63/193/33
f 291/201/4 99/202/4 100/190/4 292/189/4
f 256/198/1 132/197/1 131/2/1 257/1/1
f 3/8/3 4/7/3 66/200/34 65/199/34
f 260/196/1 68/195/1 67/203/1 259/204/1
f 68/195/2 196/205/2 195/206/3 67/203/3
f 69/183/5 197/207/5 196/205/2 68/195/2
f 70/171/6 198/208/6 197/207/5 69/183/5
f 71/157/7 199/209/7 198/208/6 70/171/6
f 72/145/8 200/210/8 199/209/7 71/157/7
f 73/133/9 201/211/9 200/210/8 72/145/8
f 74/121/10 202/212/10 201/211/9 73/133/9
f 75/120/11 203/213/11 202/212/10 74/121/10
f 76/93/12 204/214/12 203/215/11 75/105/11
f 77/81/13 205/216/13 204/214/12 76/93/12
f 78/69/14 206/217/14 205/216/13 77/81/13
f 79/55/15 207/218/15 206/217/14 78/69/14
f 80/43/16 208/219/16 207/218/15 79/55/15
f 81/31/17 209/220/17 208/219/16 80/43/16
f 82/19/18 210/221/18 209/220/17 81/31/17
f 83/18/19 211/222/19 210/221/18 82/19/18
f 84/223/20 212/224/20 211/222/19 83/18/19
f 85/225/21 213/226/21 212/224/20 84/223/20
f 86/227/22 214/228/22 213/226/21 85/225/21
f 87/229/23 215/230/23 214/228/22 86/227/22
f 88/231/24 216/232/24 215/230/23 87/229/23
f 89/233/25 217/234/25 216/232/24 88/231/24
f 90/235/26 218/236/26 217/234/25 89/233/25
f 91/237/27 219/238/27 218/236/26 90/235/26
f 92/239/28 220/240/28 219/238/27 91/237/27
f 93/241/29 221/242/29 220/240/28 92/239/28
f 94/243/30 222/244/30 221/242/29 93/241/29
f 95/245/31 223/246/31 222/244/30 94/243/30
f 96/247/32 224/248/32 223/246/31 95/245/31
f 97/249/33 225/250/33 224/248/32 96/247/32
f 98/251/34 226/252/34 225/250/33 97/249/33
f 67/203/3 195/206/3 226/252/34 98/251/34
f 292/189/2 260/196/2 259/204/3 291/201/3
f 293/177/5 261/184/5 260/196/2 292/189/2
f 294/165/6 262/172/6 261/184/5 293/177/5
f 295/151/7 263/158/7 262/172/6 294/165/6
f 296/139/8 264/146/8 263/158/7 295/151/7
f 297/127/9 265/134/9 264/146/8 296/139/8
f 298/111/10 266/122/10 265/134/9 297/127/9
f 299/114/11 267/119/11 266/122/10 298/111/10
f 300/87/12 268/94/12 267/106/11 299/99/11
f 301/75/13 269/82/13 268/94/12 300/87/12
f 302/63/14 270/70/14 269/82/13 301/75/13
f 303/49/15 271/56/15 270/70/14 302/63/14
f 304/37/16 272/44/16 271/56/15 303/49/15
f 305/25/17 273/32/17 272/44/16 304/37/16
f 306/9/18 274/20/18 273/32/17 305/25/17
f 307/12/19 275/17/19 274/20/18 306/9/18
f 308/253/20 276/254/20 275/17/19 307/12/19
f 309/255/21 277/256/21 276/254/20 308/253/20
f 310/257/22 278/258/22 277/256/21 309/255/21
f 311/259/23 279/260/23 278/258/22 310/257/22
f 312/261/24 280/262/24 279/260/23 311/259/23
f 313/263/25 281/264/25 280/262/24 312/261/24
f 314/265/26 282/266/26 281/264/25 313/263/25
f 315/267/27 283/268/27 282/266/26 314/265/26
f 316/269/28 284/270/28 283/268/27 315/267/27
f 317/271/29 285/272/29 284/270/28 316/269/28
f 318/273/30 286/274/30 285/272/29 317/271/29
f 319/275/31 287/276/31 286/274/30 318/273/30
f 320/277/32 288/278/32 287/276/31 319/275/31
f 2/279/33 289/280/33 288/278/32 320/277/32
f 258/281/34 290/282/34 289/280/33 2/279/33
f 291/201/3 259/204/3 290/282/34 258/281/34
f 132/197/2 100/190/2 99/202/3 131/2/3
f 133/191/5 101/178/5 100/190/2 132/197/2
f 134/185/6 102/166/6 101/178/5 133/191/5
f 135/179/7 103/152/7 102/166/6 134/185/6
f 136/173/8 104/140/8 103/152/7 135/179/7
f 137/167/9 105/128/9 104/140/8 136/173/8
f 138/161/10 106/112/10 105/128/9 137/167/9
f 139/160/11 107/113/11 106/112/10 138/161/10
f 140/147/12 108/88/12 107/100/11 139/153/11
f 141/141/13 109/76/13 108/88/12 140/147/12
f 142/135/14 110/64/14 109/76/13 141/141/13
f 143/129/15 111/50/15 110/64/14 142/135/14
f 144/123/16 112/38/16 111/50/15 143/129/15
f 145/115/17 113/26/17 112/38/16 144/123/16
f 146/107/18 114/10/18 113/26/17 145/115/17
f 147/101/19 115/11/19 114/10/18 146/107/18
f 148/95/20 116/283/20 115/11/19 147/101/19
f 149/89/21 117/284/21 116/283/20 148/95/20
f 150/83/22 118/285/22 117/284/21 149/89/21
f 151/77/23 119/286/23 118/285/22 150/83/22
f 152/71/24 120/287/24 119/286/23 151/77/23
f 153/65/25 121/288/25 120/287/24 152/71/24
f 154/57/26 122/289/26 121/288/25 153/65/25
f 155/51/27 123/290/27 122/289/26 154/57/26
f 156/45/28 124/291/28 123/290/27 155/51/27
f 157/39/29 125/292/29 124/291/28 156/45/28
f 158/33/30 126/293/30 125/292/29 157/39/29
f 159/27/31 127/294/31 126/293/30 158/33/30
f 160/21/32 128/295/32 127/294/31 159/27/31
f 161/13/33 129/296/33 128/295/32 160/21/32
f 162/3/34 130/297/34 129/296/33 161/13/33
f 131/2/3 99/202/3 130/297/34 162/3/34
f 192/298/2 256/198/2 257/1/3 193/299/3
f 191/300/5 255/192/5 256/198/2 192/298/2
f 190/301/6 254/186/6 255/192/5 191/300/5
f 189/302/7 253/180/7 254/186/6 190/301/6
f 188/303/8 252/174/8 253/180/7 189/302/7
f 187/304/9 251/168/9 252/174/8 188/303/8
f 186/305/10 250/162/10 251/168/9 187/304/9
f 185/306/11 249/159/11 250/162/10 186/305/10
f 184/307/12 248/148/12 249/154/11 185/308/11
f 183/309/13 247/142/13 248/148/12 184/307/12
f 182/310/14 246/136/14 247/142/13 183/309/13
f 181/311/15 245/130/15 246/136/14 182/310/14
f 180/312/16 244/124/16 245/130/15 181/311/15
f 179/313/17 243/116/17 244/124/16 180/312/16
f 178/314/18 242/108/18 243/116/17 179/313/17
f 177/315/19 241/102/19 242/108/18 178/314/18
f 176/316/20 240/96/20 241/102/19 177/315/19
f 175/317/21 239/90/21 240/96/20 176/316/20
f 174/318/22 238/84/22 239/90/21 175/317/21
f 173/319/23 237/78/23 238/84/22 174/318/22
f 172/320/24 236/72/24 237/78/23 173/319/23
f 171/321/25 235/66/25 236/72/24 172/320/24
f 170/322/26 234/58/26 235/66/25 171/321/25
f 169/323/27 233/52/27 234/58/26 170/322/26
f 168/324/28 232/46/28 233/52/27 169/323/27
f 167/325/29 231/40/29 232/46/28 168/324/28
f 166/326/30 230/34/30 231/40/29 167/325/29
f 165/327/31 229/28/31 230/34/30 166/326/30
f 164/328/32 228/22/32 229/28/31 165/327/31
f 163/329/33 227/14/33 228/22/32 164/328/32
f 1/330/34 194/4/34 227/14/33 163/329/33
f 193/299/3 257/1/3 194/4/34 1/330/34
f 196/205/1 5/5/1 3/8/1 195/206/1
f 197/207/1 7/15/1 5/5/1 196/205/1
f 198/208/1 9/23/1 7/15/1 197/207/1
f 199/209/1 11/29/1 9/23/1 198/208/1
f 200/210/1 13/35/1 11/29/1 199/209/1
f 201/211/1 15/41/1 13/35/1 200/210/1
f 202/212/1 17/47/1 15/41/1 201/211/1
f 203/213/1 19/53/1 17/47/1 202/212/1
f 204/214/1 21/59/1 19/62/1 203/215/1
f 205/216/1 23/67/1 21/59/1 204/214/1
f 206/217/1 25/73/1 23/67/1 205/216/1
f 207/218/1 27/79/1 25/73/1 206/217/1
f 208/219/1 29/85/1 27/79/1 207/218/1
f 209/220/1 31/91/1 29/85/1 208/219/1
f 210/221/1 33/97/1 31/91/1 209/220/1
f 211/222/1 35/103/1 33/97/1 210/221/1
f 212/224/1 37/109/1 35/103/1 211/222/1
f 213/226/1 39/117/1 37/109/1 212/224/1
f 214/228/1 41/125/1 39/117/1 213/226/1
f 215/230/1 43/131/1 41/125/1 214/228/1
f 216/232/1 45/137/1 43/131/1 215/230/1
f 217/234/1 47/143/1 45/137/1 216/232/1
f 218/236/1 49/149/1 47/143/1 217/234/1
f 219/238/1 51/155/1 49/149/1 218/236/1
f 220/240/1 53/163/1 51/155/1 219/238/1
f 221/242/1 55/169/1 53/163/1 220/240/1
f 222/244/1 57/175/1 55/169/1 221/242/1
f 223/246/1 59/181/1 57/175/1 222/244/1
f 224/248/1 61/187/1 59/181/1 223/246/1
f 225/250/1 63/193/1 61/187/1 224/248/1
f 226/252/1 65/199/1 63/193/1 225/250/1
f 195/206/1 3/8/1 65/199/1 226/252/1
f 258/281/4 130/297/4 99/202/4 291/201/4
f 259/204/1 67/203/1 98/251/1 290/282/1
f 2/279/4 129/296/4 130/297/4 258/281/4
f 290/282/1 98/251/1 97/249/1 289/280/1
f 320/277/4 128/295/4 129/296/4 2/279/4
f 289/280/1 97/249/1 96/247/1 288/278/1
f 319/275/4 127/294/4 128/295/4 320/277/4
f 288/278/1 96/247/1 95/245/1 287/276/1
f 318/273/4 126/293/4 127/294/4 319/275/4
f 287/276/1 95/245/1 94/243/1 286/274/1
f 317/271/4 125/292/4 126/293/4 318/273/4
f 286/274/1 94/243/1 93/241/1 285/272/1
f 316/269/4 124/291/4 125/292/4 317/271/4
f 285/272/1 93/241/1 92/239/1 284/270/1
f 315/267/4 123/290/4 124/291/4 316/269/4
f 284/270/1 92/239/1 91/237/1 283/268/1
f 314/265/4 122/289/4 123/290/4 315/267/4
f 283/268/1 91/237/1 90/235/1 282/266/1
f 313/263/4 121/288/4 122/289/4 314/265/4
f 282/266/1 90/235/1 89/233/1 281/264/1
f 312/261/4 120/287/4 121/288/4 313/263/4
f 281/264/1 89/233/1 88/231/1 280/262/1
f 311/259/4 119/286/4 120/287/4 312/261/4
f 280/262/1 88/231/1 87/229/1 279/260/1
f 310/257/4 118/285/4 119/286/4 311/259/4
f 279/260/1 87/229/1 86/227/1 278/258/1
f 309/255/4 117/284/4 118/285/4 310/257/4
f 278/258/1 86/227/1 85/225/1 277/256/1
f 308/253/4 116/283/4 117/284/4 309/255/4
f 277/256/1 85/225/1 84/223/1 276/254/1
f 307/12/4 115/11/4 116/283/4 308/253/4
f 276/254/1 84/223/1 83/18/1 275/17/1
f 323/331/3 324/332/3 322/333/3 321/334/3
f 325/335/11 326/336/11 324/332/11 323/331/11
f 327/337/19 328/338/19 326/336/19 325/335/19
f 331/331/35 332/332/35 330/333/35 329/334/35
f 333/335/36 334/336/36 332/332/36 331/331/36
f 335/337/37 336/338/37 334/336/37 333/335/37
f 339/331/38 340/332/38 338/333/38 337/334/38
f 341/335/39 342/336/39 340/332/39 339/331/39
f 343/337/40 344/338/40 342/336/40 341/335/40
f 347/336/41 348/335/41 346/337/41 345/338/41
f 349/332/42 350/331/42 348/335/42 347/336/42
f 351/333/43 352/334/43 350/331/43 349/332/43
f 355/336/44 356/335/44 354/337/44 353/338/44
f 357/332/45 358/331/45 356/335/45 355/336/45
f 359/333/46 360/334/46 358/331/46 357/332/46
f 363/336/27 364/335/27 362/337/27 361/338/27
f 365/332/3 366/331/3 364/335/3 363/336/3
f 367/333/11 368/334/11 366/331/11 365/332/11
f 371/336/47 372/335/47 370/337/47 369/338/47
f 373/332/35 374/331/35 372/335/35 371/336/35
f 375/333/36 376/334/36 374/331/36 373/332/36
f 379/336/48 380/335/48 378/337/48 377/338/48
f 381/332/38 382/331/38 380/335/38 379/336/38
f 383/333/39 384/334/39 382/331/39 381/332/39
f 387/336/49 388/335/49 386/337/49 385/338/49
f 389/332/41 390/331/41 388/335/41 387/336/41
f 391/333/42 392/334/42 390/331/42 389/332/42
f 395/336/50 396/335/50 394/337/50 393/338/50
f 397/332/44 398/331/44 396/335/44 395/336/44
f 399/333/45 400/334/45 398/331/45 397/332/45
f 403/336/19 404/335/19 402/337/19 401/338/19
f 405/332/27 406/331/27 404/335/27 403/336/27
f 407/333/3 408/334/3 406/331/3 405/332/3
f 411/331/37 412/332/37 410/333/37 409/334/37
f 413/335/47 414/336/47 412/332/47 411/331/47
f 415/337/35 416/338/35 414/336/35 413/335/35
f 419/335/40 420/336/40 418/338/40 417/337/40
f 421/331/48 422/332/48 420/336/48 419/335/48
f 423/334/38 424/333/38 422/332/38 421/331/38
f 427/331/43 428/332/43 426/333/43 425/334/43
f 429/335/49 430/336/49 428/332/49 427/331/49
f 431/337/41 432/338/41 430/336/41 429/335/41
f 435/331/46 436/332/46 434/333/46 433/334/46
f 437/335/50 438/336/50 436/332/50 435/331/50
f 439/337/44 440/338/44 438/336/44 437/335/44
f 443/331/11 444/332/11 442/333/11 441/334/11
f 445/335/19 446/336/19 444/332/19 443/331/19
f 447/337/27 448/338/27 446/336/27 445/335/27
f 451/331/36 452/332/36 450/333/36 449/334/36
f 453/335/37 454/336/37 452/332/37 451/331/37
f 455/337/47 456/338/47 454/336/47 453/335/47
f 459/331/39 460/332/39 458/333/39 457/334/39
f 461/335/40 462/336/40 460/332/40 459/331/40
f 463/337/48 464/338/48 462/336/48 461/335/48
f 467/331/42 468/332/42 466/333/42 465/334/42
f 469/335/43 470/336/43 468/332/43 467/331/43
f 471/337/49 472/338/49 470/336/49 469/335/49
f 475/331/45 476/332/45 474/333/45 473/334/45
f 477/335/46 478/336/46 476/332/46 475/331/46
f 479/337/50 480/338/50 478/336/50 477/335/50
